<svg width="20" height="34" viewBox="0 0 20 34" fill="none" xmlns="http://www.w3.org/2000/svg">
<path d="M19.445 15.6733L4.3146 0.543166C3.96465 0.192942 3.4975 0 2.99939 0C2.50128 0 2.03413 0.192942 1.68418 0.543166L0.569929 1.65714C-0.155122 2.38302 -0.155122 3.56278 0.569929 4.28756L13.2753 16.993L0.555831 29.7124C0.205883 30.0627 0.0126648 30.5295 0.0126648 31.0274C0.0126648 31.5258 0.205883 31.9926 0.555831 32.3431L1.67008 33.4568C2.02031 33.8071 2.48718 34 2.98529 34C3.4834 34 3.95055 33.8071 4.3005 33.4568L19.445 18.3129C19.7958 17.9615 19.9885 17.4924 19.9874 16.9938C19.9885 16.4932 19.7958 16.0244 19.445 15.6733Z" fill="white" fill-opacity="0.67"/>
</svg>
