<svg width="21" height="35" viewBox="0 0 21 35" fill="none" xmlns="http://www.w3.org/2000/svg">
<path d="M0.777189 16.1343L16.3526 0.559142C16.7129 0.198616 17.1938 0 17.7065 0C18.2193 0 18.7002 0.198616 19.0604 0.559142L20.2074 1.70588C20.9538 2.45311 20.9538 3.66757 20.2074 4.41366L7.12836 17.4927L20.222 30.5863C20.5822 30.9469 20.7811 31.4275 20.7811 31.9399C20.7811 32.453 20.5822 32.9336 20.222 33.2944L19.0749 34.4409C18.7144 34.8014 18.2338 35 17.721 35C17.2083 35 16.7274 34.8014 16.3671 34.4409L0.777189 18.8515C0.416094 18.4898 0.217764 18.0069 0.218901 17.4936C0.217764 16.9783 0.416094 16.4957 0.777189 16.1343Z" fill="white" fill-opacity="0.67"/>
</svg>
